<svg width="60" height="61" viewBox="0 0 60 61" fill="none" xmlns="http://www.w3.org/2000/svg">
<rect y="0.19043" width="60" height="60" rx="11" fill="url(#paint0_linear_1_139)"/>
<mask id="mask0_1_139" style="mask-type:alpha" maskUnits="userSpaceOnUse" x="0" y="0" width="60" height="61">
<rect y="0.19043" width="60" height="60" rx="11" fill="white"/>
</mask>
<g mask="url(#mask0_1_139)">
<path fill-rule="evenodd" clip-rule="evenodd" d="M38.078 19.1904C39.279 19.1904 40.1397 20.3492 39.7928 21.499L28.1181 60.1904H23.711L24.8892 56.2857C25.0445 55.771 24.7722 55.3494 24.2767 55.3122L24.2044 55.3095H16.8592C16.3183 55.3095 15.748 55.7465 15.5853 56.2857L14.4071 60.1904H10L21.7948 21.101C22.1371 19.9667 23.1821 19.1904 24.367 19.1904C25.568 19.1904 26.4288 20.3492 26.0818 21.499L25.6002 23.0952C25.4449 23.6098 25.7172 24.0314 26.2127 24.0687L26.285 24.0714H33.6301C34.171 24.0714 34.7414 23.6343 34.9041 23.0952L35.5058 21.101C35.8481 19.9667 36.8931 19.1904 38.078 19.1904ZM20.8357 42.1309C20.2948 42.1309 19.7245 42.568 19.5618 43.1071L17.6472 49.4523C17.4845 49.9915 17.7911 50.4285 18.332 50.4285H25.6772C26.218 50.4285 26.7884 49.9915 26.9511 49.4523L28.8657 43.1071C29.0284 42.568 28.7218 42.1309 28.1809 42.1309H20.8357ZM24.8122 28.9523C24.2713 28.9523 23.701 29.3894 23.5383 29.9285L21.6237 36.2738C21.461 36.8129 21.7676 37.25 22.3085 37.25H29.6537C30.1945 37.25 30.7649 36.8129 30.9276 36.2738L32.8422 29.9285C33.0048 29.3894 32.6983 28.9523 32.1574 28.9523H24.8122Z" fill="#010F29"/>
</g>
<defs>
<linearGradient id="paint0_linear_1_139" x1="-5.28094" y1="25.3246" x2="27.4896" y2="68.8968" gradientUnits="userSpaceOnUse">
<stop stop-color="#FCA82D"/>
<stop offset="1" stop-color="#EFC449"/>
</linearGradient>
</defs>
</svg>
